<svg width="20" height="19" viewBox="0 0 20 19" fill="none" xmlns="http://www.w3.org/2000/svg">
<path d="M8.99097 18.1671C9.39194 18.568 10.2607 18.568 10.6617 18.1671V10.1476H18.6812C19.0822 9.74659 19.0822 8.87781 18.6812 8.47683H10.6617V0.457328C10.2607 0.0563534 9.39194 0.0563534 8.99097 0.457328V8.47683H0.971462C0.570487 8.87781 0.570487 9.74659 0.971462 10.1476H8.99097V18.1671Z" fill="#07070A"/>
<path d="M8.99097 18.1671H7.79097V18.6641L8.14244 19.0156L8.99097 18.1671ZM10.6617 18.1671L11.5102 19.0156L11.8617 18.6641V18.1671H10.6617ZM10.6617 10.1476V8.94757H9.4617V10.1476H10.6617ZM18.6812 10.1476V11.3476H19.1783L19.5297 10.9961L18.6812 10.1476ZM18.6812 8.47683L19.5297 7.62831L19.1783 7.27683H18.6812V8.47683ZM10.6617 8.47683H9.4617V9.67683H10.6617V8.47683ZM10.6617 0.457328H11.8617V-0.0397296L11.5102 -0.391202L10.6617 0.457328ZM8.99097 0.457328L8.14244 -0.391202L7.79097 -0.0397296V0.457328H8.99097ZM8.99097 8.47683V9.67683H10.191V8.47683H8.99097ZM0.971462 8.47683V7.27683H0.474405L0.122933 7.62831L0.971462 8.47683ZM0.971462 10.1476L0.122934 10.9961L0.474406 11.3476H0.971462V10.1476ZM8.99097 10.1476H10.191V8.94757H8.99097V10.1476ZM8.14244 19.0156C8.63395 19.5071 9.29798 19.6678 9.82633 19.6678C10.3547 19.6678 11.0187 19.5071 11.5102 19.0156L9.81317 17.3185C9.83958 17.2921 9.86224 17.2766 9.87572 17.2685C9.8891 17.2605 9.89579 17.2585 9.89365 17.2592C9.89161 17.2599 9.88407 17.2623 9.87113 17.2644C9.85829 17.2665 9.84298 17.2678 9.82633 17.2678C9.80969 17.2678 9.79438 17.2665 9.78154 17.2644C9.7686 17.2623 9.76105 17.2599 9.75902 17.2592C9.75688 17.2585 9.76357 17.2605 9.77694 17.2685C9.79043 17.2766 9.81309 17.2921 9.8395 17.3185L8.14244 19.0156ZM11.8617 18.1671V10.1476H9.4617V18.1671H11.8617ZM10.6617 11.3476H18.6812V8.94757H10.6617V11.3476ZM19.5297 10.9961C20.0212 10.5046 20.1819 9.84055 20.1819 9.3122C20.1819 8.78385 20.0212 8.11982 19.5297 7.62831L17.8327 9.32536C17.8063 9.29895 17.7907 9.2763 17.7827 9.26281C17.7747 9.24943 17.7726 9.24274 17.7734 9.24488C17.7741 9.24692 17.7764 9.25446 17.7785 9.2674C17.7806 9.28025 17.7819 9.29555 17.7819 9.3122C17.7819 9.32885 17.7806 9.34415 17.7785 9.357C17.7764 9.36994 17.7741 9.37748 17.7734 9.37952C17.7726 9.38166 17.7747 9.37497 17.7827 9.36159C17.7907 9.3481 17.8063 9.32545 17.8327 9.29904L19.5297 10.9961ZM18.6812 7.27683H10.6617V9.67683H18.6812V7.27683ZM11.8617 8.47683V0.457328H9.4617V8.47683H11.8617ZM11.5102 -0.391202C11.0187 -0.882707 10.3547 -1.0434 9.82633 -1.0434C9.29798 -1.0434 8.63395 -0.882707 8.14244 -0.391202L9.8395 1.30586C9.81308 1.33227 9.79043 1.34782 9.77694 1.35588C9.76357 1.36387 9.75687 1.36592 9.75902 1.36518C9.76105 1.36447 9.7686 1.36211 9.78154 1.36002C9.79438 1.35795 9.80969 1.3566 9.82633 1.3566C9.84298 1.3566 9.85829 1.35795 9.87113 1.36002C9.88407 1.36211 9.89162 1.36447 9.89365 1.36518C9.8958 1.36592 9.8891 1.36387 9.87573 1.35588C9.86224 1.34782 9.83958 1.33227 9.81317 1.30586L11.5102 -0.391202ZM7.79097 0.457328V8.47683H10.191V0.457328H7.79097ZM8.99097 7.27683H0.971462V9.67683H8.99097V7.27683ZM0.122933 7.62831C-0.368572 8.11981 -0.529269 8.78385 -0.529269 9.3122C-0.529269 9.84055 -0.368573 10.5046 0.122934 10.9961L1.81999 9.29904C1.8464 9.32545 1.86195 9.3481 1.87001 9.36159C1.87801 9.37497 1.88006 9.38166 1.87931 9.37951C1.8786 9.37748 1.87625 9.36994 1.87416 9.357C1.87208 9.34415 1.87073 9.32885 1.87073 9.3122C1.87073 9.29555 1.87208 9.28025 1.87416 9.2674C1.87625 9.25446 1.8786 9.24692 1.87931 9.24489C1.88006 9.24274 1.87801 9.24943 1.87001 9.26281C1.86195 9.2763 1.8464 9.29895 1.81999 9.32536L0.122933 7.62831ZM0.971462 11.3476H8.99097V8.94757H0.971462V11.3476ZM7.79097 10.1476V18.1671H10.191V10.1476H7.79097Z" fill="#07070A"/>
</svg>
