<svg width="68" height="57" viewBox="0 0 68 57" fill="none" xmlns="http://www.w3.org/2000/svg">
<path d="M20.7267 46.9558V10.379H18.9716V46.9558H20.7267ZM31.1803 25.257C30.2629 23.9008 30.5421 23.8609 32.337 23.6615C32.5764 23.4222 32.5764 22.5845 32.337 22.3452C31.2601 22.3851 29.505 22.425 28.3084 22.425C27.1118 22.425 25.9152 22.3851 24.8781 22.3452C24.6388 22.5845 24.6388 23.4222 24.8781 23.6615C26.2343 23.7812 27.3511 24.4592 28.468 26.0946L31.9382 31.1604C32.1376 31.4396 32.1376 31.5592 31.9781 31.7587L28.6275 36.0665C27.032 38.1008 26.1545 38.2204 24.7584 38.3002C24.5191 38.5395 24.5191 39.3772 24.7584 39.6165C25.5562 39.5766 26.4337 39.5367 27.6303 39.5367C28.8269 39.5367 29.9438 39.5766 30.9809 39.6165C31.2202 39.3772 31.2202 38.5395 30.9809 38.3002C29.5449 38.1407 29.2258 37.9811 30.1033 36.7047L32.6163 33.075C32.9354 32.5963 33.0949 32.6362 33.3342 32.9952L35.6477 36.1862C37.0438 38.1008 36.4056 38.1806 35.1292 38.3002C34.8898 38.5395 34.8898 39.3772 35.1292 39.6165C36.3258 39.5766 37.6421 39.5367 39.078 39.5367C40.5938 39.5367 41.6707 39.5766 42.628 39.6165C42.8673 39.3772 42.8673 38.5395 42.628 38.3002C40.8331 38.1806 40.2348 38.0609 38.6393 35.7873L35.0494 30.7216C34.8898 30.4823 34.85 30.3626 35.0494 30.1233L38.3999 25.8553C39.8758 23.9806 40.8331 23.7812 42.269 23.6615C42.5084 23.4222 42.5084 22.5845 42.269 22.3452C41.4713 22.3851 40.5539 22.425 39.3572 22.425C38.1606 22.425 37.0438 22.3851 36.0067 22.3452C35.7674 22.5845 35.7674 23.4222 36.0067 23.6615C37.4825 23.821 37.9213 23.9407 36.964 25.2969L34.3713 28.9266C34.0921 29.3255 33.9325 29.2856 33.6134 28.8469L31.1803 25.257ZM48.4609 46.9558V10.379H46.7059V46.9558H48.4609Z" fill="#07070A"/>
</svg>
