<svg width="20" height="24" viewBox="0 0 20 24" fill="none" xmlns="http://www.w3.org/2000/svg">
<path d="M13.5072 3.64752C14.4103 2.68073 15.0211 1.33847 14.8539 0C13.5529 0.0464296 11.9761 0.763701 11.0423 1.73041C10.2051 2.58623 9.47222 3.95401 9.66782 5.26622C11.1196 5.36443 12.6027 4.61275 13.5072 3.64752ZM16.2779 12.8911C16.2502 9.89033 18.6537 8.44912 18.7601 8.37948C17.4089 6.34176 15.3045 6.06294 14.555 6.03149C12.7631 5.84338 11.0611 7.11666 10.1514 7.11666C9.24534 7.11666 7.84389 6.05619 6.35773 6.08467C4.40398 6.11686 2.60377 7.25455 1.60034 9.05765C-0.429224 12.685 1.08015 18.0584 3.05785 21.0007C4.02464 22.4411 5.17575 24.0569 6.68735 23.9984C8.14651 23.94 8.69658 23.0279 10.457 23.0279C12.2182 23.0279 12.7113 23.9984 14.2522 23.9692C15.82 23.94 16.8122 22.5011 17.7708 21.0562C18.8799 19.3857 19.3371 17.7684 19.3633 17.6867C19.3296 17.6672 16.3101 16.4794 16.2779 12.8911Z" fill="#CCD0D2"/>
</svg>
