<svg width="38" height="38" viewBox="0 0 38 38" fill="none" xmlns="http://www.w3.org/2000/svg">
<path d="M34.1778 6.38739H3.82218C1.71442 6.38739 0 8.10228 0 10.2096V11.6376C0 11.8625 0.182478 12.0449 0.407298 12.0449H37.5927C37.8175 12.0449 38 11.8625 38 11.6376V10.2096C38 8.10228 36.2855 6.38739 34.1778 6.38739Z" fill="#E9470C"/>
<path d="M37.5927 15.8807H0.407298C0.182555 15.8807 0 16.0631 0 16.288V27.7903C0 29.8977 1.71442 31.6126 3.82218 31.6126H34.1778C36.2855 31.6126 38 29.8977 38 27.7903V16.288C38 16.0631 37.8175 15.8807 37.5927 15.8807ZM17.8125 26.7716C17.8125 27.0105 17.6189 27.204 17.3794 27.204H4.97552C4.73651 27.204 4.54278 27.0105 4.54278 26.7716V25.1847C4.54278 24.9456 4.73651 24.752 4.97552 24.752H17.3794C17.6189 24.752 17.8125 24.9456 17.8125 25.1847V26.7716Z" fill="#E9470C"/>
</svg>
