<svg  viewBox="0 0 41 35" xmlns="http://www.w3.org/2000/svg">
<path d="M38.9234 0H2.07662C0.929737 0 0 0.873045 0 1.95V5.05C0 6.12695 0.929737 7 2.07662 7H38.9234C40.0703 7 41 6.12695 41 5.05V1.95C41 0.873045 40.0703 0 38.9234 0Z" fill="#E9E9E9"/>
<path d="M38.9234 14H2.07662C0.929737 14 0 14.873 0 15.95V19.05C0 20.127 0.929737 21 2.07662 21H38.9234C40.0703 21 41 20.127 41 19.05V15.95C41 14.873 40.0703 14 38.9234 14Z" fill="#E9E9E9"/>
<path d="M38.9234 28H2.07662C0.929737 28 0 28.873 0 29.95V33.05C0 34.127 0.929737 35 2.07662 35H38.9234C40.0703 35 41 34.127 41 33.05V29.95C41 28.873 40.0703 28 38.9234 28Z" fill="#E9E9E9"/>
</svg>
