<svg width="68" height="58" viewBox="0 0 68 58" fill="none" xmlns="http://www.w3.org/2000/svg">
<path d="M36.1371 24.5403C36.283 24.4236 36.5458 24.3652 36.575 24.5695C36.6626 25.2702 36.8961 26.2919 36.8961 26.2919C37.1297 26.3795 37.2756 26.3503 37.4508 26.2919C38.093 25.7665 39.1148 25.3286 40.8956 25.1242C41.0708 24.949 41.0708 24.5111 40.8956 24.336C39.0272 24.19 38.7645 23.6353 38.7645 22.2049V8.98024C38.7645 7.08267 38.8813 5.91493 38.8813 5.91493C38.8813 5.71058 38.7645 5.623 38.5017 5.623C37.7719 5.91493 35.5824 6.32364 34.4147 6.41122C34.3563 6.64477 34.4147 7.11186 34.5898 7.28702C34.6774 7.28702 34.765 7.28702 34.8526 7.28702C36.1371 7.3746 36.4582 7.3746 36.4582 9.68088V13.4176C36.4582 13.622 36.3998 13.6804 36.1955 13.6804C36.0787 13.6804 34.8818 13.1841 33.9184 13.1841C31.9916 13.1841 30.7071 13.8263 29.5394 14.9357C28.284 16.191 27.525 17.9134 27.525 20.0737C27.525 23.6645 29.335 26.2919 32.4879 26.2919C33.6264 26.2919 34.7066 25.7081 36.1371 24.5403ZM36.4582 22.38C36.4582 22.9347 36.3998 23.1682 35.9911 23.5186C34.911 24.4527 33.9768 24.9198 33.2469 24.9198C31.6705 24.9198 30.0357 23.1974 30.0357 19.5483C30.0357 17.4463 30.4444 16.2786 30.8823 15.6655C31.7873 14.2934 33.0134 14.2059 33.5972 14.2059C34.6482 14.2059 35.378 14.5854 35.9619 15.2568C36.3706 15.7239 36.4582 15.9283 36.4582 16.8333V22.38Z" fill="#07070A"/>
<rect x="17.7052" y="28.4949" width="30.6592" height="1.1398" fill="#07070A"/>
<path d="M27.8954 51.1969C28.0413 51.0801 28.3041 51.0217 28.3333 51.2261C28.4209 51.9267 28.6544 52.9485 28.6544 52.9485C28.888 53.0361 29.0339 53.0069 29.2091 52.9485C29.8513 52.423 30.8731 51.9851 32.6539 51.7808C32.8291 51.6056 32.8291 51.1677 32.6539 50.9925C30.7855 50.8466 30.5228 50.2919 30.5228 48.8614V35.6368C30.5228 33.7392 30.6396 32.5715 30.6396 32.5715C30.6396 32.3671 30.5228 32.2796 30.26 32.2796C29.5302 32.5715 27.3407 32.9802 26.173 33.0678C26.1146 33.3013 26.173 33.7684 26.3481 33.9436C26.4357 33.9436 26.5233 33.9436 26.6109 33.9436C27.8954 34.0312 28.2165 34.0312 28.2165 36.3374V40.0742C28.2165 40.2785 28.1581 40.3369 27.9538 40.3369C27.837 40.3369 26.6401 39.8406 25.6767 39.8406C23.7499 39.8406 22.4654 40.4829 21.2977 41.5923C20.0423 42.8476 19.2833 44.57 19.2833 46.7303C19.2833 50.3211 21.0933 52.9485 24.2462 52.9485C25.3847 52.9485 26.4649 52.3646 27.8954 51.1969ZM28.2165 49.0366C28.2165 49.5912 28.1581 49.8248 27.7494 50.1751C26.6693 51.1093 25.7351 51.5764 25.0052 51.5764C23.4288 51.5764 21.794 49.854 21.794 46.2048C21.794 44.1029 22.2027 42.9351 22.6406 42.3221C23.5456 40.95 24.7717 40.8624 25.3555 40.8624C26.4065 40.8624 27.1363 41.2419 27.7202 41.9134C28.1289 42.3805 28.2165 42.5848 28.2165 43.4898V49.0366ZM38.2257 42.2053C37.5543 41.2127 37.7586 41.1835 39.0723 41.0376C39.2475 40.8624 39.2475 40.2494 39.0723 40.0742C38.2841 40.1034 36.9996 40.1326 36.1238 40.1326C35.248 40.1326 34.3722 40.1034 33.6132 40.0742C33.438 40.2494 33.438 40.8624 33.6132 41.0376C34.6058 41.1252 35.4232 41.6214 36.2406 42.8184L38.7804 46.5259C38.9264 46.7303 38.9264 46.8179 38.8096 46.9638L36.3574 50.1167C35.1896 51.6056 34.5474 51.6932 33.5256 51.7516C33.3504 51.9267 33.3504 52.5398 33.5256 52.7149C34.1095 52.6857 34.7517 52.6566 35.6275 52.6566C36.5033 52.6566 37.3207 52.6857 38.0798 52.7149C38.2549 52.5398 38.2549 51.9267 38.0798 51.7516C37.0288 51.6348 36.7953 51.518 37.4375 50.5838L39.2767 47.9272C39.5102 47.5769 39.627 47.6061 39.8022 47.8688L41.4954 50.2043C42.5172 51.6056 42.0501 51.664 41.1159 51.7516C40.9407 51.9267 40.9407 52.5398 41.1159 52.7149C41.9917 52.6857 42.9551 52.6566 44.006 52.6566C45.1154 52.6566 45.9036 52.6857 46.6042 52.7149C46.7794 52.5398 46.7794 51.9267 46.6042 51.7516C45.2905 51.664 44.8526 51.5764 43.6849 49.9124L41.0575 46.2048C40.9407 46.0297 40.9115 45.9421 41.0575 45.7669L43.5097 42.6432C44.5899 41.2711 45.2905 41.1252 46.3415 41.0376C46.5167 40.8624 46.5167 40.2494 46.3415 40.0742C45.7576 40.1034 45.0862 40.1326 44.2104 40.1326C43.3346 40.1326 42.5172 40.1034 41.7581 40.0742C41.583 40.2494 41.583 40.8624 41.7581 41.0376C42.8383 41.1543 43.1594 41.2419 42.4588 42.2345L40.5612 44.8911C40.3569 45.183 40.2401 45.1538 40.0065 44.8327L38.2257 42.2053Z" fill="#07070A"/>
</svg>
