<svg width="60" height="60" viewBox="0 0 60 60" fill="none" xmlns="http://www.w3.org/2000/svg">
<path d="M57.3156 0H2.68442C1.20185 0 0 1.20185 0 2.68442V57.3156C0 58.7981 1.20185 60 2.68442 60H57.3156C58.7981 60 60 58.7981 60 57.3156V2.68442C60 1.20185 58.7981 0 57.3156 0Z" fill="#F19675"/>
<path d="M42.5312 21H16.4688C15.6576 21 15 21.6236 15 22.3929V24.6071C15 25.3764 15.6576 26 16.4688 26H42.5312C43.3424 26 44 25.3764 44 24.6071V22.3929C44 21.6236 43.3424 21 42.5312 21Z" fill="#07070A"/>
<path d="M42.5312 35H16.4688C15.6576 35 15 35.6236 15 36.3929V38.6071C15 39.3764 15.6576 40 16.4688 40H42.5312C43.3424 40 44 39.3764 44 38.6071V36.3929C44 35.6236 43.3424 35 42.5312 35Z" fill="#07070A"/>
</svg>
