<svg width="111" height="27" viewBox="0 0 143 35" fill="none" xmlns="http://www.w3.org/2000/svg">
<g clip-path="url(#clip0_151_166)">
<path fill-rule="evenodd" clip-rule="evenodd" d="M12.4781 8.23843H22.2497C27.4962 8.23843 29.4712 10.9217 29.166 14.8638C28.6615 21.372 24.767 24.9727 19.6012 24.9727H16.9931C16.2843 24.9727 15.8076 25.4467 15.6159 26.731L14.5086 34.1973C14.4355 34.6815 14.1832 34.9618 13.8049 35H7.66545C7.08783 35 6.88352 34.5541 7.03486 33.5883L10.778 9.65271C10.9243 8.69457 11.4439 8.23843 12.4781 8.23843Z" fill="#6B6565"/>
<path fill-rule="evenodd" clip-rule="evenodd" d="M54.9016 7.79504C58.1984 7.79504 61.2403 9.60174 60.8241 14.1045C60.3197 19.4558 57.482 22.4168 53.0048 22.4296H49.0927C48.5302 22.4296 48.2578 22.8933 48.1115 23.8438L47.3548 28.7033C47.2412 29.4372 46.8679 29.799 46.3181 29.799H42.6783C42.0982 29.799 41.8964 29.4245 42.025 28.5861L45.0291 9.10993C45.178 8.1518 45.5336 7.79504 46.1819 7.79504H54.8941H54.9016ZM48.9741 18.2224H51.9379C53.7918 18.1511 55.0227 16.854 55.1463 14.5147C55.222 13.0699 54.2559 12.0353 52.7198 12.0429L49.9301 12.0557L48.9741 18.2224ZM70.7193 28.3083C71.0523 28.0025 71.3903 27.8446 71.3424 28.2217L71.2238 29.1238C71.1633 29.5952 71.3474 29.8449 71.7813 29.8449H75.0149C75.5597 29.8449 75.8246 29.6232 75.9583 28.7721L77.9509 16.138C78.0518 15.5034 77.898 15.1926 77.4213 15.1926H73.8647C73.5444 15.1926 73.388 15.3735 73.3048 15.8678L73.1736 16.6451C73.1055 17.0502 72.9214 17.1216 72.7498 16.7139C72.147 15.2716 70.6084 14.6243 68.4618 14.6753C63.4751 14.7798 60.1128 18.6047 59.7521 23.5075C59.4747 27.2992 62.1635 30.2781 65.7099 30.2781C68.2827 30.2781 69.4329 29.5136 70.7294 28.316L70.7193 28.3083ZM68.0103 26.364C65.8638 26.364 64.368 24.6338 64.6783 22.5136C64.9885 20.3935 66.9963 18.6633 69.1429 18.6633C71.2894 18.6633 72.7852 20.3935 72.4749 22.5136C72.1647 24.6338 70.1594 26.364 68.0103 26.364ZM84.2795 15.1518H81.0005C80.3245 15.1518 80.0495 15.6614 80.2639 16.2883L84.335 28.3313L80.3421 34.0622C80.0067 34.5413 80.2665 34.9771 80.7382 34.9771H84.4233C84.6381 35.0021 84.8555 34.9643 85.0496 34.8681C85.2437 34.7718 85.4063 34.6213 85.518 34.4343L98.039 16.2909C98.4249 15.7328 98.2433 15.1467 97.6102 15.1467H94.1218C93.524 15.1467 93.2844 15.3862 92.9413 15.8882L87.72 23.5329L85.3869 15.8704C85.2506 15.4066 84.9101 15.1518 84.2821 15.1518H84.2795Z" fill="#33333F"/>
<path fill-rule="evenodd" clip-rule="evenodd" d="M111.064 7.79505C114.361 7.79505 117.403 9.60175 116.987 14.1045C116.482 19.4558 113.645 22.4168 109.168 22.4296H105.258C104.696 22.4296 104.423 22.8933 104.277 23.8438L103.52 28.7033C103.407 29.4372 103.033 29.7991 102.483 29.7991H98.8436C98.2635 29.7991 98.0617 29.4245 98.1904 28.5861L101.2 9.10484C101.348 8.1467 101.704 7.78995 102.352 7.78995H111.064V7.79505ZM105.137 18.2224H108.101C109.955 18.1511 111.186 16.854 111.309 14.5147C111.385 13.0699 110.419 12.0353 108.883 12.043L106.093 12.0557L105.137 18.2224ZM126.882 28.3083C127.215 28.0025 127.553 27.8446 127.505 28.2217L127.387 29.1238C127.326 29.5952 127.51 29.8449 127.944 29.8449H131.178C131.723 29.8449 131.987 29.6232 132.121 28.7721L134.114 16.138C134.215 15.5035 134.061 15.1926 133.584 15.1926H130.033C129.712 15.1926 129.556 15.3735 129.473 15.8679L129.341 16.6451C129.273 17.0502 129.089 17.1216 128.918 16.7139C128.315 15.2716 126.776 14.6243 124.63 14.6753C119.643 14.7798 116.281 18.6047 115.92 23.5075C115.643 27.2992 118.331 30.2781 121.878 30.2781C124.451 30.2781 125.601 29.5137 126.897 28.316L126.882 28.3083ZM124.176 26.364C122.029 26.364 120.533 24.6338 120.844 22.5137C121.154 20.3935 123.162 18.6633 125.308 18.6633C127.455 18.6633 128.95 20.3935 128.64 22.5137C128.33 24.6338 126.322 26.364 124.176 26.364ZM139.09 29.8653H135.357C135.292 29.8682 135.228 29.8567 135.168 29.8314C135.108 29.8061 135.054 29.7677 135.01 29.719C134.967 29.6704 134.934 29.6125 134.915 29.5497C134.896 29.4869 134.891 29.4206 134.901 29.3557L138.18 8.3684C138.211 8.22517 138.289 8.09685 138.402 8.00432C138.515 7.91178 138.655 7.86048 138.8 7.85875H142.533C142.598 7.85582 142.663 7.86741 142.723 7.89269C142.783 7.91798 142.837 7.95633 142.88 8.00502C142.924 8.0537 142.956 8.11152 142.975 8.17434C142.994 8.23715 142.999 8.30342 142.99 8.3684L139.711 29.3557C139.681 29.4998 139.603 29.6293 139.49 29.7229C139.377 29.8164 139.236 29.8684 139.09 29.8704V29.8653Z" fill="#6B6565"/>
<path fill-rule="evenodd" clip-rule="evenodd" d="M6.36665 0H16.1483C18.9028 0 22.1717 0.0891882 24.3561 2.03859C25.8165 3.34074 26.5833 5.41245 26.4068 7.6447C25.8064 15.19 21.3394 19.4175 15.3462 19.4175H10.5235C9.7012 19.4175 9.15889 19.968 8.92684 21.4561L7.5799 30.1201C7.49162 30.6807 7.25199 31.012 6.82319 31.0528H0.787192C0.118768 31.0528 -0.118336 30.5431 0.0557066 29.4168L4.39416 1.64616C4.5682 0.530031 5.17609 0 6.36665 0Z" fill="#33333F"/>
<path fill-rule="evenodd" clip-rule="evenodd" d="M9.06787 20.577L10.7755 9.65273C10.9243 8.69459 11.4439 8.2359 12.4781 8.2359H22.2497C23.8665 8.2359 25.1756 8.49073 26.1997 8.96215C25.2185 15.6793 20.9179 19.4099 15.288 19.4099H10.4728C9.8271 19.4125 9.3529 19.7386 9.06787 20.577Z" fill="#07070A"/>
</g>
<defs>
<clipPath id="clip0_151_166">
<rect width="143" height="35" fill="white"/>
</clipPath>
</defs>
</svg>
