<svg viewBox="0 0 168 37" fill="none" xmlns="http://www.w3.org/2000/svg">
<g clip-path="url(#clip0_214_1476)">
<path d="M20.6 0C21.71 0.192208 22.84 0.317143 23.93 0.576623C31.45 2.36416 37.15 8.49558 38.21 15.8956C39.62 25.7366 32.96 34.7319 22.81 36.6829C22.08 36.827 21.33 36.9039 20.59 37.0096C17.19 37.0096 13.79 37.0096 10.39 37.0096C10.39 30.8109 10.39 24.6122 10.4 18.4231C10.4 18.0099 10.44 17.587 10.51 17.1834C11.17 13.0221 15.12 9.87948 19.45 10.0429C24.02 10.2255 27.69 13.6179 27.98 17.9426C28.41 24.3623 21.61 28.8696 15.52 26.1979C15.39 26.1403 15.26 26.0922 15.07 26.0249C15.07 27.9951 15.06 29.8979 15.09 31.8008C15.09 31.9161 15.32 32.0891 15.47 32.1275C17.42 32.6657 19.41 32.7714 21.41 32.4639C29.87 31.1569 35.33 23.4397 33.5 15.4247C31.81 8.00545 24.09 3.15221 16.4 4.66104C9.44 6.00649 4.58 11.7151 4.56 18.5577C4.55 24.5449 4.56 30.5322 4.56 36.5195C4.56 36.6829 4.58 36.8366 4.6 37C3.07 37 1.53 37 0 37C0 30.3688 0 23.7377 0 17.1065C0.06 16.7317 0.13 16.3569 0.18 15.9725C1.24 8.50519 6.91 2.39299 14.52 0.567013C15.6 0.307532 16.71 0.182597 17.8 0C18.73 0 19.67 0 20.6 0Z" fill="#07070A"/>
<path d="M168 26.1403C166.97 26.1403 165.94 26.1403 164.83 26.1403C164.83 25.4003 164.83 24.6699 164.83 23.9395C164.82 21.1044 164.83 18.2693 164.8 15.4343C164.77 13.2143 163.03 11.2153 160.77 10.7636C157.67 10.139 154.52 12.5512 154.51 15.6073C154.5 18.9228 154.52 22.2384 154.53 25.554C154.53 25.7462 154.53 25.9288 154.53 26.1499C153.48 26.1499 152.49 26.1499 151.45 26.1499C151.45 20.2971 151.45 14.4444 151.45 8.54363C152.44 8.54363 153.44 8.54363 154.5 8.54363C154.5 8.83194 154.5 9.12986 154.5 9.51428C155.5 8.65895 156.56 8.13038 157.76 7.84207C162.48 6.69844 167.42 10.0332 167.9 14.6847C167.91 14.8192 167.96 14.9634 167.99 15.0979C168 18.7691 168 22.4595 168 26.1403Z" fill="#131317"/>
<path d="M48.18 24.1701C48.18 27.0917 48.18 30.0036 48.18 32.954C47.13 32.954 46.14 32.954 45.12 32.954C45.11 32.8291 45.09 32.7042 45.09 32.5792C45.09 27.4665 45.07 22.3634 45.1 17.2506C45.13 12.628 48.5 8.72623 53.2 7.81324C58.85 6.71766 64.38 10.533 65.12 16.0301C65.85 21.4504 61.97 26.3132 56.31 26.9668C53.34 27.3031 50.78 26.3229 48.58 24.42C48.48 24.3335 48.43 24.1797 48.35 24.0548C48.29 24.0932 48.24 24.1317 48.18 24.1701ZM55.17 24.0644C59.04 24.0548 62.13 21.0564 62.13 17.3275C62.12 13.6083 58.99 10.6003 55.14 10.6195C51.28 10.6387 48.18 13.6371 48.19 17.366C48.18 21.0756 51.3 24.074 55.17 24.0644Z" fill="#131317"/>
<path d="M112.77 21.2678C114.25 23.4397 117.38 24.5161 120.15 23.8049C121.84 23.3725 123.19 22.4403 124.16 21.0468C125.13 19.6533 125.49 18.0964 125.28 16.3953C126.33 16.3953 127.34 16.3953 128.34 16.3953C128.89 20.1146 126.58 24.9678 121.4 26.5535C116.5 28.0527 111.21 25.7462 109.14 21.2197C107.06 16.674 108.89 11.3403 113.4 8.8704C118.07 6.31403 123.3 7.98624 125.74 10.7829C121.42 14.2714 117.11 17.76 112.77 21.2678ZM111.47 18.4327C114.58 15.9244 117.6 13.4834 120.65 11.0135C118.32 10.0813 115.35 10.706 113.46 12.5223C111.8 14.1273 111.17 16.0782 111.47 18.4327Z" fill="#131317"/>
<path d="M86.4 26.1499C85.35 26.1499 84.35 26.1499 83.31 26.1499C83.31 25.554 83.31 24.987 83.31 24.3335C83.15 24.4584 83.06 24.5257 82.98 24.593C77.25 29.3597 68.42 26.7073 66.56 19.6628C64.85 13.1662 70.41 6.98674 77.34 7.65947C82.44 8.15921 86.34 12.2436 86.39 17.1641C86.42 20.0473 86.4 22.9304 86.4 25.8135C86.4 25.9096 86.4 26.0057 86.4 26.1499ZM69.35 17.2987C69.34 20.9891 72.45 24.0164 76.27 24.0356C80.13 24.0452 83.3 21.0756 83.31 17.4236C83.32 13.6083 80.24 10.5906 76.35 10.5906C72.49 10.5714 69.36 13.5795 69.35 17.2987Z" fill="#131317"/>
<path d="M129.53 17.2987C129.54 11.9553 134.06 7.61145 139.6 7.61145C145.16 7.61145 149.7 12.0034 149.67 17.3468C149.64 22.6998 145.13 27.0148 139.57 27.0052C134.03 26.9956 129.52 22.6421 129.53 17.2987ZM139.59 24.026C143.45 24.026 146.59 21.0276 146.59 17.3179C146.6 13.6179 143.46 10.5811 139.62 10.5715C135.77 10.5618 132.62 13.5795 132.61 17.2795C132.61 20.9987 135.74 24.026 139.59 24.026Z" fill="#131317"/>
<path d="M87.38 8.48598C87.99 8.48598 88.53 8.48598 89.15 8.48598C89.15 6.20832 89.15 3.95949 89.15 1.68182C90.21 1.68182 91.2 1.68182 92.25 1.68182C92.25 3.94027 92.25 6.1891 92.25 8.48598C93.82 8.48598 95.33 8.48598 96.87 8.48598C96.87 9.48546 96.87 10.4369 96.87 11.4556C95.35 11.4556 93.83 11.4556 92.26 11.4556C92.26 16.3857 92.26 21.2486 92.26 26.1403C91.22 26.1403 90.23 26.1403 89.18 26.1403C89.18 25.9288 89.18 25.7462 89.18 25.5636C89.18 21.0468 89.17 16.5299 89.19 12.013C89.19 11.5805 89.08 11.4075 88.61 11.4556C88.22 11.494 87.82 11.4652 87.39 11.4652C87.38 10.4657 87.38 9.51429 87.38 8.48598Z" fill="#131317"/>
<path d="M101.55 11.0616C103.02 9.79298 104.7 8.91844 106.64 8.59168C107.32 8.47636 108.02 8.46675 108.76 8.39948C108.76 9.37973 108.76 10.2543 108.76 11.1288C108.76 11.4652 108.5 11.4075 108.3 11.4075C106.76 11.4267 105.38 11.8977 104.19 12.8106C102.46 14.1273 101.52 15.8571 101.49 17.9906C101.46 20.5182 101.48 23.0553 101.48 25.5829C101.48 25.7558 101.48 25.9288 101.48 26.1403C100.45 26.1403 99.46 26.1403 98.43 26.1403C98.43 20.2683 98.43 14.406 98.43 8.52441C99.4 8.52441 100.38 8.52441 101.42 8.52441C101.42 9.3509 101.42 10.1774 101.42 11.0039C101.47 11.0231 101.51 11.0423 101.55 11.0616Z" fill="#131317"/>
</g>
<defs>
<clipPath id="clip0_214_1476">
<rect width="168" height="37" fill="white"/>
</clipPath>
</defs>
</svg>
