<svg viewBox="0 0 36 36" fill="none" xmlns="http://www.w3.org/2000/svg">
<path d="M32.379 6.05121H3.62101C1.62419 6.05121 0 7.67584 0 9.67229V11.0251C0 11.2381 0.172873 11.4109 0.385861 11.4109H35.6141C35.8271 11.4109 36 11.2381 36 11.0251V9.67229C36 7.67584 34.3757 6.05121 32.379 6.05121Z" fill="#07070A"/>
<path d="M35.6141 15.0449H0.385861C0.172947 15.0449 0 15.2177 0 15.4306V26.3276C0 28.3241 1.62419 29.9487 3.62101 29.9487H32.379C34.3757 29.9487 36 28.3241 36 26.3276V15.4306C36 15.2176 35.8271 15.0449 35.6141 15.0449ZM16.875 25.3625C16.875 25.5888 16.6916 25.7722 16.4647 25.7722H4.71365C4.48722 25.7722 4.30369 25.5888 4.30369 25.3625V23.8591C4.30369 23.6326 4.48722 23.4492 4.71365 23.4492H16.4647C16.6916 23.4492 16.875 23.6326 16.875 23.8591V25.3625Z" fill="#07070A"/>
</svg>
