<svg width="38" height="38" viewBox="0 0 38 38" fill="none" xmlns="http://www.w3.org/2000/svg">
<path d="M6.54139 0.993922C5.29321 1.47933 4.23765 2.12653 3.18209 3.18209C2.12653 4.22995 1.47933 5.29321 0.993922 6.53369C0.523928 7.73564 0.20803 9.11481 0.115572 11.1335C0.0231145 13.1521 0 13.7993 0 18.9462C0 24.093 0.0231145 24.7402 0.115572 26.7589C0.20803 28.7775 0.531633 30.1567 0.993922 31.3586C1.47933 32.6068 2.12653 33.6624 3.18209 34.7179C4.23765 35.7735 5.29321 36.4207 6.54139 36.9061C7.74335 37.3761 9.12251 37.692 11.1412 37.7845C13.1598 37.8769 13.807 37.9 18.9539 37.9C24.1007 37.9 24.7479 37.8769 26.7666 37.7845C28.7852 37.692 30.1644 37.3684 31.3663 36.9061C32.6145 36.4207 33.6701 35.7735 34.7256 34.7179C35.7812 33.6624 36.4284 32.6068 36.9138 31.3586C37.3838 30.1567 37.6997 28.7775 37.7922 26.7589C37.8846 24.7402 37.9077 24.093 37.9077 18.9462C37.9077 13.7993 37.8846 13.1521 37.7922 11.1335C37.6997 9.11481 37.3761 7.73564 36.9138 6.53369C36.4284 5.29321 35.7812 4.22995 34.7333 3.18209C33.6778 2.12653 32.6222 1.47933 31.374 0.993922C30.1721 0.523928 28.7929 0.20803 26.7743 0.115572C24.7556 0.0231145 24.1084 0 18.9616 0C13.8147 0 13.1675 0.0231145 11.1489 0.115572C9.12251 0.200325 7.74335 0.523928 6.54139 0.993922ZM26.6125 3.5211C28.4616 3.60586 29.4632 3.91405 30.1336 4.17601C31.0196 4.52273 31.6514 4.93109 32.314 5.5937C32.9766 6.25632 33.385 6.88811 33.7317 7.77417C33.9937 8.44449 34.3019 9.44611 34.3866 11.2953C34.4791 13.2908 34.4945 13.8918 34.4945 18.9539C34.4945 24.0159 34.4714 24.6169 34.3866 26.6125C34.3019 28.4616 33.9937 29.4632 33.7317 30.1336C33.385 31.0196 32.9766 31.6514 32.314 32.314C31.6514 32.9766 31.0196 33.385 30.1336 33.7317C29.4632 33.9937 28.4616 34.3019 26.6125 34.3866C24.6169 34.4791 24.0159 34.4945 18.9539 34.4945C13.8918 34.4945 13.2908 34.4714 11.2953 34.3866C9.44611 34.3019 8.44448 33.9937 7.77417 33.7317C6.88811 33.385 6.25632 32.9766 5.5937 32.314C4.93109 31.6514 4.52273 31.0196 4.17601 30.1336C3.91405 29.4632 3.60586 28.4616 3.5211 26.6125C3.42865 24.6169 3.41324 24.0159 3.41324 18.9539C3.41324 13.8918 3.43635 13.2908 3.5211 11.2953C3.60586 9.44611 3.91405 8.44449 4.17601 7.77417C4.52273 6.88811 4.93109 6.25632 5.5937 5.5937C6.25632 4.93109 6.88811 4.52273 7.77417 4.17601C8.44448 3.91405 9.44611 3.60586 11.2953 3.5211C13.2908 3.42865 13.8918 3.41324 18.9539 3.41324C24.0159 3.41324 24.6169 3.42865 26.6125 3.5211Z" fill="#07070A"/>
<path d="M9.22266 18.9538C9.22266 24.3318 13.5836 28.685 18.9538 28.685C24.3241 28.685 28.685 24.3241 28.685 18.9538C28.685 13.5836 24.3318 9.22266 18.9538 9.22266C13.5759 9.22266 9.22266 13.5759 9.22266 18.9538ZM25.2718 18.9538C25.2718 22.4441 22.4441 25.2718 18.9538 25.2718C15.4636 25.2718 12.6359 22.4441 12.6359 18.9538C12.6359 15.4636 15.4636 12.6359 18.9538 12.6359C22.4441 12.6359 25.2718 15.4636 25.2718 18.9538Z" fill="#07070A"/>
<path d="M29.0781 11.1104C30.3334 11.1104 31.351 10.0928 31.351 8.8375C31.351 7.5822 30.3334 6.56458 29.0781 6.56458C27.8228 6.56458 26.8052 7.5822 26.8052 8.8375C26.8052 10.0928 27.8228 11.1104 29.0781 11.1104Z" fill="#07070A"/>
</svg>
