<svg width="69" height="57" viewBox="0 0 69 57" fill="none" xmlns="http://www.w3.org/2000/svg">
<path d="M31.8061 37.4292C31.8061 39.8747 31.3297 43.6224 30.4404 43.6224C29.9005 43.6224 29.4559 42.6378 28.5984 42.6378C27.9949 42.6378 27.3597 43.1777 27.3597 43.8129C27.3597 44.6069 28.0584 45.1786 29.0748 45.1786C32.1872 45.1786 34.2199 42.2885 34.2199 32.6017V23.1055C34.2199 21.1046 34.0928 18.8179 34.0928 17.2299C34.0928 13.0058 34.728 11.8307 35.395 11.8307C36.1572 11.8307 36.2207 12.8788 37.2371 12.8788C37.9993 12.8788 38.6345 12.3389 38.6345 11.6402C38.6345 10.8462 37.8722 10.2745 36.9512 10.2745C33.5847 10.2745 31.7426 13.8316 31.7426 21.6445V31.5219C31.7426 34.0626 31.8061 34.8884 31.8061 37.4292Z" fill="#07070A"/>
</svg>
