<svg viewBox="0 0 168 37" fill="none" xmlns="http://www.w3.org/2000/svg">
<g clip-path="url(#clip0_586_34)">
<path d="M20.6 0C21.71 0.192208 22.84 0.317143 23.93 0.576623C31.45 2.36416 37.15 8.49558 38.21 15.8956C39.62 25.7366 32.96 34.7319 22.81 36.6829C22.08 36.827 21.33 36.9039 20.59 37.0096C17.19 37.0096 13.79 37.0096 10.39 37.0096C10.39 30.8109 10.39 24.6122 10.4 18.4231C10.4 18.0099 10.44 17.587 10.51 17.1834C11.17 13.0221 15.12 9.87948 19.45 10.0429C24.02 10.2255 27.69 13.6179 27.98 17.9426C28.41 24.3623 21.61 28.8696 15.52 26.1979C15.39 26.1403 15.26 26.0922 15.07 26.0249C15.07 27.9951 15.06 29.8979 15.09 31.8008C15.09 31.9161 15.32 32.0891 15.47 32.1275C17.42 32.6657 19.41 32.7714 21.41 32.4639C29.87 31.1569 35.33 23.4397 33.5 15.4247C31.81 8.00545 24.09 3.15221 16.4 4.66104C9.44 6.00649 4.58 11.7151 4.56 18.5577C4.55 24.5449 4.56 30.5322 4.56 36.5195C4.56 36.6829 4.58 36.8366 4.6 37C3.07 37 1.53 37 0 37C0 30.3688 0 23.7377 0 17.1065C0.06 16.7317 0.13 16.3569 0.18 15.9725C1.24 8.50519 6.91 2.39299 14.52 0.567013C15.6 0.307532 16.71 0.182597 17.8 0C18.73 0 19.67 0 20.6 0Z" fill="#F19675"/>
<path d="M168 26.1403C166.97 26.1403 165.94 26.1403 164.83 26.1403C164.83 25.4003 164.83 24.6699 164.83 23.9395C164.82 21.1044 164.83 18.2693 164.8 15.4343C164.77 13.2143 163.03 11.2153 160.77 10.7636C157.67 10.139 154.52 12.5512 154.51 15.6073C154.5 18.9228 154.52 22.2384 154.53 25.554C154.53 25.7462 154.53 25.9288 154.53 26.1499C153.48 26.1499 152.49 26.1499 151.45 26.1499C151.45 20.2971 151.45 14.4444 151.45 8.54363C152.44 8.54363 153.44 8.54363 154.5 8.54363C154.5 8.83194 154.5 9.12986 154.5 9.51428C155.5 8.65895 156.56 8.13038 157.76 7.84207C162.48 6.69844 167.42 10.0332 167.9 14.6847C167.91 14.8192 167.96 14.9634 167.99 15.0979C168 18.7691 168 22.4595 168 26.1403Z" fill="#EEBC98"/>
<path d="M48.18 24.1702C48.18 27.0917 48.18 30.0037 48.18 32.9541C47.13 32.9541 46.14 32.9541 45.12 32.9541C45.11 32.8291 45.09 32.7042 45.09 32.5793C45.09 27.4666 45.07 22.3634 45.1 17.2507C45.13 12.6281 48.5 8.72629 53.2 7.8133C58.85 6.71772 64.38 10.533 65.12 16.0302C65.85 21.4504 61.97 26.3133 56.31 26.9668C53.34 27.3032 50.78 26.3229 48.58 24.4201C48.48 24.3336 48.43 24.1798 48.35 24.0549C48.29 24.0933 48.24 24.1317 48.18 24.1702ZM55.17 24.0645C59.04 24.0549 62.13 21.0564 62.13 17.3276C62.12 13.6084 58.99 10.6003 55.14 10.6195C51.28 10.6388 48.18 13.6372 48.19 17.366C48.18 21.0756 51.3 24.0741 55.17 24.0645Z" fill="#EEBC98"/>
<path d="M112.77 21.2677C114.25 23.4397 117.38 24.5161 120.15 23.8049C121.84 23.3724 123.19 22.4402 124.16 21.0467C125.13 19.6532 125.49 18.0963 125.28 16.3953C126.33 16.3953 127.34 16.3953 128.34 16.3953C128.89 20.1145 126.58 24.9677 121.4 26.5535C116.5 28.0527 111.21 25.7462 109.14 21.2197C107.06 16.674 108.89 11.3402 113.4 8.87034C118.07 6.31397 123.3 7.98618 125.74 10.7828C121.42 14.2714 117.11 17.7599 112.77 21.2677ZM111.47 18.4327C114.58 15.9244 117.6 13.4833 120.65 11.0135C118.32 10.0812 115.35 10.7059 113.46 12.5223C111.8 14.1272 111.17 16.0781 111.47 18.4327Z" fill="#EEBC98"/>
<path d="M86.4001 26.1499C85.3501 26.1499 84.3501 26.1499 83.3101 26.1499C83.3101 25.554 83.3101 24.987 83.3101 24.3335C83.1501 24.4584 83.0601 24.5257 82.9801 24.593C77.2501 29.3597 68.4201 26.7073 66.5601 19.6628C64.8501 13.1662 70.4101 6.98674 77.3401 7.65947C82.4401 8.15921 86.3401 12.2436 86.3901 17.1641C86.4201 20.0473 86.4001 22.9304 86.4001 25.8135C86.4001 25.9096 86.4001 26.0057 86.4001 26.1499ZM69.3501 17.2987C69.3401 20.9891 72.4501 24.0164 76.2701 24.0356C80.1301 24.0452 83.3001 21.0756 83.3101 17.4236C83.3201 13.6083 80.2401 10.5906 76.3501 10.5906C72.4901 10.5714 69.3601 13.5795 69.3501 17.2987Z" fill="#EEBC98"/>
<path d="M129.53 17.2986C129.54 11.9552 134.06 7.61133 139.6 7.61133C145.16 7.61133 149.7 12.0033 149.67 17.3467C149.64 22.6996 145.13 27.0147 139.57 27.0051C134.03 26.9955 129.52 22.642 129.53 17.2986ZM139.59 24.0259C143.45 24.0259 146.59 21.0274 146.59 17.3178C146.6 13.6178 143.46 10.5809 139.62 10.5713C135.77 10.5617 132.62 13.5794 132.61 17.2794C132.61 20.9986 135.74 24.0259 139.59 24.0259Z" fill="#EEBC98"/>
<path d="M87.3799 8.48604C87.9899 8.48604 88.5299 8.48604 89.1499 8.48604C89.1499 6.20838 89.1499 3.95955 89.1499 1.68188C90.2099 1.68188 91.1999 1.68188 92.2499 1.68188C92.2499 3.94033 92.2499 6.18916 92.2499 8.48604C93.8199 8.48604 95.3299 8.48604 96.8699 8.48604C96.8699 9.48552 96.8699 10.4369 96.8699 11.4557C95.3499 11.4557 93.8299 11.4557 92.2599 11.4557C92.2599 16.3858 92.2599 21.2486 92.2599 26.1403C91.2199 26.1403 90.2299 26.1403 89.1799 26.1403C89.1799 25.9289 89.1799 25.7463 89.1799 25.5637C89.1799 21.0468 89.1699 16.5299 89.1899 12.0131C89.1899 11.5806 89.0799 11.4076 88.6099 11.4557C88.2199 11.4941 87.8199 11.4653 87.3899 11.4653C87.3799 10.4658 87.3799 9.51435 87.3799 8.48604Z" fill="#EEBC98"/>
<path d="M101.55 11.0615C103.02 9.79292 104.7 8.91838 106.64 8.59162C107.32 8.4763 108.02 8.46669 108.76 8.39941C108.76 9.37967 108.76 10.2542 108.76 11.1288C108.76 11.4651 108.5 11.4075 108.3 11.4075C106.76 11.4267 105.38 11.8976 104.19 12.8106C102.46 14.1272 101.52 15.8571 101.49 17.9906C101.46 20.5181 101.48 23.0553 101.48 25.5828C101.48 25.7558 101.48 25.9288 101.48 26.1402C100.45 26.1402 99.4599 26.1402 98.4299 26.1402C98.4299 20.2682 98.4299 14.4059 98.4299 8.52435C99.3999 8.52435 100.38 8.52435 101.42 8.52435C101.42 9.35084 101.42 10.1773 101.42 11.0038C101.47 11.0231 101.51 11.0423 101.55 11.0615Z" fill="#EEBC98"/>
</g>
<defs>
<clipPath id="clip0_586_34">
<rect width="168" height="37" fill="white"/>
</clipPath>
</defs>
</svg>
