<svg width="111" height="27" viewBox="0 0 111 27" fill="none" xmlns="http://www.w3.org/2000/svg">
<g clip-path="url(#clip0_544_105)">
<path fill-rule="evenodd" clip-rule="evenodd" d="M10.385 6.4502H17.8543C21.8646 6.4502 23.3743 8.4927 23.141 11.4934C22.7554 16.4474 19.7785 19.1882 15.8298 19.1882H13.8362C13.2944 19.1882 12.93 19.549 12.7835 20.5266L11.9371 26.2099C11.8812 26.5785 11.6884 26.7918 11.3992 26.8209H6.7063C6.26478 26.8209 6.10861 26.4815 6.22429 25.7463L9.08552 7.52673C9.19734 6.79741 9.59452 6.4502 10.385 6.4502Z" fill="#EEBC98"/>
<path fill-rule="evenodd" clip-rule="evenodd" d="M42.8125 6.11267C45.3325 6.11267 47.6577 7.48792 47.3396 10.9154C46.954 14.9887 44.7849 17.2427 41.3626 17.2524H38.3722C37.9423 17.2524 37.7341 17.6054 37.6222 18.3289L37.0438 22.0279C36.9571 22.5865 36.6717 22.862 36.2514 22.862H33.4692C33.0258 22.862 32.8715 22.5768 32.9699 21.9387L35.2662 7.11356C35.3799 6.38423 35.6518 6.11267 36.1473 6.11267H42.8068H42.8125ZM38.2816 14.0499H40.5471C41.9642 13.9956 42.9051 13.0083 42.9996 11.2277C43.0574 10.1279 42.319 9.34033 41.1448 9.34615L39.0124 9.35585L38.2816 14.0499ZM54.9033 21.7273C55.1578 21.4945 55.4162 21.3742 55.3796 21.6613L55.2889 22.348C55.2427 22.7068 55.3834 22.8969 55.715 22.8969H58.1868C58.6033 22.8969 58.8057 22.7281 58.9079 22.0803L60.431 12.4632C60.5082 11.9803 60.3906 11.7436 60.0262 11.7436H57.3076C57.0627 11.7436 56.9432 11.8813 56.8796 12.2576L56.7793 12.8492C56.7273 13.1577 56.5865 13.212 56.4554 12.9016C55.9946 11.8038 54.8185 11.3111 53.1777 11.3499C49.366 11.4294 46.7959 14.3409 46.5202 18.0729C46.3081 20.9591 48.3634 23.2266 51.0742 23.2266C53.0408 23.2266 53.92 22.6447 54.911 21.7331L54.9033 21.7273ZM52.8326 20.2473C51.1918 20.2473 50.0485 18.9302 50.2857 17.3164C50.5228 15.7026 52.0575 14.3855 53.6983 14.3855C55.3391 14.3855 56.4824 15.7026 56.2453 17.3164C56.0081 18.9302 54.4753 20.2473 52.8326 20.2473ZM65.2685 11.7126H62.7621C62.2453 11.7126 62.0352 12.1005 62.1991 12.5777L65.3109 21.7447L62.2588 26.1071C62.0024 26.4718 62.201 26.8035 62.5615 26.8035H65.3784C65.5426 26.8226 65.7088 26.7938 65.8571 26.7205C66.0055 26.6473 66.1298 26.5326 66.2152 26.3903L75.786 12.5796C76.081 12.1548 75.9422 11.7087 75.4583 11.7087H72.7918C72.3348 11.7087 72.1517 11.891 71.8894 12.2732L67.8984 18.0923L66.1149 12.2596C66.0108 11.9066 65.7505 11.7126 65.2704 11.7126H65.2685Z" fill="#F19675"/>
<path fill-rule="evenodd" clip-rule="evenodd" d="M85.7427 6.11265C88.2627 6.11265 90.5879 7.4879 90.2698 10.9153C89.8842 14.9887 87.7151 17.2426 84.2929 17.2523H81.3044C80.8744 17.2523 80.6662 17.6054 80.5544 18.3289L79.9759 22.0279C79.8892 22.5865 79.6038 22.862 79.1835 22.862H76.4013C75.9579 22.862 75.8037 22.5768 75.902 21.9387L78.2021 7.10965C78.3159 6.38032 78.5878 6.10876 79.0833 6.10876H85.7427V6.11265ZM81.2118 14.0499H83.4773C84.8944 13.9956 85.8353 13.0083 85.9298 11.2276C85.9876 10.1278 85.2492 9.34031 84.075 9.34613L81.9426 9.35583L81.2118 14.0499V14.0499ZM97.8335 21.7272C98.088 21.4945 98.3464 21.3742 98.3098 21.6613L98.2191 22.3479C98.1729 22.7068 98.3136 22.8969 98.6452 22.8969H101.117C101.533 22.8969 101.736 22.7281 101.838 22.0803L103.361 12.4632C103.438 11.9802 103.321 11.7436 102.956 11.7436H100.242C99.9968 11.7436 99.8773 11.8813 99.8136 12.2576L99.7134 12.8492C99.6613 13.1576 99.5206 13.212 99.3895 12.9016C98.9287 11.8037 97.7526 11.311 96.1118 11.3498C92.3 11.4294 89.7299 14.3409 89.4542 18.0728C89.2421 20.9591 91.2974 23.2266 94.0083 23.2266C95.9749 23.2266 96.8541 22.6447 97.8451 21.7331L97.8335 21.7272ZM95.7647 20.2472C94.124 20.2472 92.9806 18.9302 93.2178 17.3164C93.4549 15.7025 94.9897 14.3855 96.6304 14.3855C98.2712 14.3855 99.4145 15.7025 99.1774 17.3164C98.9402 18.9302 97.4055 20.2472 95.7647 20.2472ZM107.165 22.9124H104.312C104.262 22.9146 104.213 22.9058 104.167 22.8866C104.121 22.8673 104.08 22.8381 104.047 22.8011C104.013 22.764 103.988 22.72 103.974 22.6722C103.959 22.6244 103.956 22.5739 103.963 22.5245L106.469 6.54908C106.493 6.44005 106.553 6.34238 106.639 6.27194C106.725 6.20151 106.833 6.16245 106.944 6.16114H109.797C109.847 6.15891 109.896 6.16773 109.942 6.18697C109.988 6.20622 110.029 6.23541 110.062 6.27247C110.096 6.30953 110.12 6.35354 110.135 6.40136C110.149 6.44917 110.153 6.49962 110.146 6.54908L107.64 22.5245C107.616 22.6342 107.557 22.7328 107.471 22.804C107.384 22.8752 107.277 22.9148 107.165 22.9163V22.9124Z" fill="#EEBC98"/>
<path fill-rule="evenodd" clip-rule="evenodd" d="M5.71324 0.179077H13.1902C15.2956 0.179077 17.7944 0.246967 19.4641 1.73084C20.5804 2.72202 21.1665 4.299 21.0316 5.99818C20.5727 11.7416 17.1581 14.9596 12.5771 14.9596H8.89066C8.26212 14.9596 7.84759 15.3786 7.67021 16.5114L6.64063 23.1063C6.57315 23.5331 6.38998 23.7852 6.06221 23.8163H1.4484C0.937462 23.8163 0.756224 23.4283 0.889259 22.571L4.2055 1.43212C4.33854 0.582533 4.8032 0.179077 5.71324 0.179077Z" fill="#F19675"/>
<path fill-rule="evenodd" clip-rule="evenodd" d="M7.77783 15.8421L9.08312 7.5266C9.19688 6.79727 9.59405 6.44812 10.3846 6.44812H17.8538C19.0897 6.44812 20.0904 6.64209 20.8731 7.00094C20.1231 12.114 16.8358 14.9537 12.5324 14.9537H8.85176C8.35818 14.9556 7.9957 15.2039 7.77783 15.8421Z" fill="#E9470C"/>
</g>
<defs>
<clipPath id="clip0_544_105">
<rect width="109.307" height="26.6418" fill="white" transform="translate(0.84668 0.179077)"/>
</clipPath>
</defs>
</svg>
