<svg width="36" height="36" viewBox="0 0 36 36" fill="none" xmlns="http://www.w3.org/2000/svg">
<path d="M1.46875 0.03125H34.5312C35.3264 0.03125 35.9688 0.673633 35.9688 1.46875V34.5312C35.9688 35.3264 35.3264 35.9688 34.5312 35.9688H1.46875C0.673634 35.9688 0.03125 35.3264 0.03125 34.5312V1.46875C0.03125 0.673633 0.673634 0.03125 1.46875 0.03125ZM23.9297 26.2656C24.9225 26.2656 25.7266 25.4615 25.7266 24.4688C25.7266 23.476 24.9225 22.6719 23.9297 22.6719C22.9369 22.6719 22.1328 23.476 22.1328 24.4688C22.1328 25.4615 22.9369 26.2656 23.9297 26.2656ZM23.9297 19.7969C24.9225 19.7969 25.7266 18.9928 25.7266 18C25.7266 17.0072 24.9225 16.2031 23.9297 16.2031C22.9369 16.2031 22.1328 17.0072 22.1328 18C22.1328 18.9928 22.9369 19.7969 23.9297 19.7969ZM23.9297 13.3281C24.9225 13.3281 25.7266 12.524 25.7266 11.5312C25.7266 10.5385 24.9225 9.73438 23.9297 9.73438C22.9369 9.73438 22.1328 10.5385 22.1328 11.5312C22.1328 12.524 22.9369 13.3281 23.9297 13.3281ZM10.2734 25.5469C10.2734 25.7445 10.4352 25.9062 10.6328 25.9062H18.8984C19.0961 25.9062 19.2578 25.7445 19.2578 25.5469V23.3906C19.2578 23.193 19.0961 23.0312 18.8984 23.0312H10.6328C10.4352 23.0312 10.2734 23.193 10.2734 23.3906V25.5469ZM10.2734 19.0781C10.2734 19.2758 10.4352 19.4375 10.6328 19.4375H18.8984C19.0961 19.4375 19.2578 19.2758 19.2578 19.0781V16.9219C19.2578 16.7242 19.0961 16.5625 18.8984 16.5625H10.6328C10.4352 16.5625 10.2734 16.7242 10.2734 16.9219V19.0781ZM10.2734 12.6094C10.2734 12.807 10.4352 12.9688 10.6328 12.9688H18.8984C19.0961 12.9688 19.2578 12.807 19.2578 12.6094V10.4531C19.2578 10.2555 19.0961 10.0938 18.8984 10.0938H10.6328C10.4352 10.0938 10.2734 10.2555 10.2734 10.4531V12.6094Z" fill="#E9470C"/>
</svg>
