<svg width="36" height="36" viewBox="0 0 36 36" fill="none" xmlns="http://www.w3.org/2000/svg">
<path d="M18 36C24.9176 36 30.5455 30.3721 30.5455 23.4545C30.5455 20.2068 29.3048 17.2433 27.2727 15.0132V9.27273C27.2727 4.15975 23.113 0 18 0C12.887 0 8.7274 4.15975 8.7274 9.27273V15.013C6.69525 17.2433 5.45456 20.2068 5.45456 23.4545C5.45456 30.3721 11.0824 36 18 36ZM19.6364 23.9985V26.1818C19.6364 27.0855 18.9037 27.8182 18 27.8182C17.0963 27.8182 16.3636 27.0855 16.3636 26.1818V23.9985C15.7017 23.5005 15.2727 22.7086 15.2727 21.8182C15.2727 20.3144 16.4962 19.0909 18 19.0909C19.5038 19.0909 20.7273 20.3144 20.7273 21.8182C20.7273 22.7086 20.2983 23.5005 19.6364 23.9985ZM12.0001 9.27273C12.0001 5.96433 14.6917 3.27273 18 3.27273C21.3084 3.27273 24 5.96433 24 9.27273V12.4395C22.2166 11.4641 20.172 10.9091 18 10.9091C15.8281 10.9091 13.7835 11.4641 12.0001 12.4394V9.27273Z" fill="#E9470C"/>
</svg>
