<svg width="36" height="36" viewBox="0 0 36 36" fill="none" xmlns="http://www.w3.org/2000/svg">
<g clip-path="url(#clip0_586_566)">
<path d="M35.2783 18.3959L32.1035 17.6918C32.0574 15.8536 31.6631 14.0747 30.9296 12.4L33.3956 10.4028C33.7907 10.0828 33.8514 9.50319 33.5318 9.10809L30.1655 4.95007C30.0116 4.76044 29.7892 4.63929 29.5458 4.61388C29.3016 4.58848 29.0604 4.66028 28.8701 4.81383L26.4637 6.76248C24.9948 5.65891 23.3566 4.86575 21.591 4.40252V1.34256C21.591 0.834042 21.1789 0.421997 20.6704 0.421997H15.3201C14.8116 0.421997 14.3995 0.834042 14.3995 1.34256V4.4051C12.5952 4.87938 10.9253 5.69868 9.43177 6.84202L7.00332 4.90994C6.81221 4.75786 6.56955 4.68863 6.32578 4.71588C6.08349 4.7435 5.86145 4.86649 5.70937 5.0576L2.3784 9.24433C2.22669 9.43544 2.15673 9.6792 2.18434 9.9215C2.21196 10.1642 2.33495 10.3858 2.52606 10.5375L5.01637 12.5179C4.29943 14.1973 3.92053 15.977 3.89033 17.8126L0.713279 18.5461C0.475405 18.6006 0.269198 18.7482 0.139583 18.9552C0.00996723 19.1621 -0.0316423 19.4118 0.0235916 19.65L1.22769 24.8637C1.34221 25.359 1.8349 25.6676 2.33163 25.5538L5.60332 24.7986C6.45503 26.3621 7.57775 27.7319 8.9424 28.8741L7.47133 31.9573C7.36639 32.1782 7.35313 32.4308 7.43451 32.6609C7.51589 32.8911 7.68564 33.08 7.90584 33.1846L12.7351 35.4878C12.86 35.5475 12.9955 35.5777 13.1313 35.5777C13.2348 35.5777 13.339 35.56 13.4388 35.5243C13.6689 35.4429 13.8571 35.2731 13.9624 35.0533L15.4512 31.9311C17.1682 32.2448 18.9523 32.2382 20.6594 31.9123L22.1739 35.0172C22.3963 35.4738 22.9482 35.6642 23.4049 35.4407L28.2139 33.0954C28.4341 32.9883 28.602 32.7983 28.6815 32.5674C28.7611 32.3365 28.7456 32.0836 28.6384 31.8641L27.1427 28.799C28.4996 27.6442 29.6117 26.2634 30.4509 24.6903L33.7218 25.4157C34.2204 25.5251 34.7105 25.2117 34.8195 24.7165L35.9779 19.4928C36.0877 18.9979 35.7743 18.506 35.2783 18.3959ZM24.0496 18.0523C24.0496 21.3892 21.3354 24.1034 17.9986 24.1034C14.6621 24.1034 11.9475 21.3892 11.9475 18.0523C11.9475 14.7158 14.6621 12.0012 17.9986 12.0012C21.3354 12.0012 24.0496 14.7158 24.0496 18.0523Z" fill="#E9470C"/>
</g>
<defs>
<clipPath id="clip0_586_566">
<rect width="36" height="36" fill="white"/>
</clipPath>
</defs>
</svg>
