<svg width="42" height="34" viewBox="0 0 42 34" fill="none" xmlns="http://www.w3.org/2000/svg">
<path d="M37.7002 8.46421C37.7258 8.83309 37.7258 9.20197 37.7258 9.57424C37.7258 20.9176 29.0579 34 13.2083 34V33.9932C8.52627 34 3.9415 32.6639 0 30.1446C0.680804 30.2262 1.36502 30.267 2.05094 30.2687C5.93102 30.2721 9.70018 28.9751 12.7527 26.5868C9.06545 26.5171 5.83205 24.1219 4.7025 20.6252C5.99415 20.8734 7.32505 20.8224 8.59281 20.4774C4.57282 19.6682 1.68068 16.1494 1.68068 12.0629V11.9541C2.87849 12.6187 4.21962 12.9876 5.59147 13.0284C1.80524 10.5075 0.638147 5.4894 2.92456 1.56605C7.29945 6.92921 13.7543 10.1896 20.6835 10.5347C19.989 7.55307 20.9377 4.42867 23.1764 2.3327C26.6469 -0.917496 32.1053 -0.750906 35.3677 2.70498C37.2975 2.3259 39.1471 1.62044 40.8397 0.620907C40.1965 2.60808 38.8502 4.29608 37.0518 5.36871C38.7598 5.16812 40.4285 4.71255 42 4.01729C40.8431 5.74438 39.386 7.24879 37.7002 8.46421Z" fill="#07070A"/>
</svg>
